<svg viewBox="0 0 145 80" fill="none" xmlns="http://www.w3.org/2000/svg">
<mask id="mask0_2001_3410" style="mask-type:luminance" maskUnits="userSpaceOnUse" x="0" y="0" width="145" height="80">
<path d="M144.857 0H0V79.6585H144.857V0Z" fill="white"/>
</mask>
<g mask="url(#mask0_2001_3410)">
<path d="M33.1385 21.064C38.7752 15.6232 41.2048 13.4021 50.4342 8.5993C50.4342 8.5993 25.2759 8.39866 0.00317383 17.4509C11.1763 16.686 22.3965 17.9086 33.1433 21.064" fill="#DC0023"/>
<path d="M51.4702 8.18704C57.2684 8.57108 64.518 10.2812 72.0953 12.6136C79.1835 7.98641 88.9505 1.56595 96.9306 0.28217C82.3874 -1.01885 65.3504 2.28386 51.4702 8.18704Z" fill="#DC0023"/>
<path d="M72.0972 12.6152C78.6806 8.0444 88.9509 1.56438 96.9279 0.282166L96.8651 2.42336C88.4132 4.87179 79.4942 12.2484 72.9186 16.8208L72.0972 12.6152Z" fill="#9F1E2D"/>
<path d="M72.9183 16.8208C65.341 14.4883 58.0803 12.7625 52.2931 12.3863L51.4702 8.18701C57.2684 8.56791 64.518 10.2812 72.0953 12.612L72.9183 16.8208Z" fill="#DEBCA7"/>
<path d="M58.0835 20.4119C57.9722 21.6126 56.5818 22.4763 54.9626 22.3305C53.3434 22.1848 52.1442 21.0813 52.2524 19.868C52.3825 18.6579 53.7666 17.8021 55.3811 17.951C56.9956 18.0999 58.2042 19.194 58.085 20.4119" fill="#9F1E2D"/>
<path d="M33.1387 21.064C38.7754 15.6232 41.205 13.4021 50.4344 8.5993L51.19 12.8127C41.97 17.6187 39.5309 19.8382 33.891 25.2931L33.1387 21.0656V21.064Z" fill="#9F1E2D"/>
<path d="M0 17.4493C11.1731 16.6844 22.3932 17.907 33.1399 21.0624L33.8923 25.2931C21.2332 21.727 10.0775 19.4495 0.572197 20.1893L0 17.4493Z" fill="#DEBCA7"/>
<path d="M32.0743 23.7899C37.1091 23.5736 46.8558 24.5627 57.6041 28.066C43.2709 38.504 32.7076 46.6267 14.6924 68.2425C14.6924 68.2425 21.7853 41.349 32.0727 23.7899" fill="#DC0023"/>
<path d="M16.5654 74.6033C32.303 51.8276 43.7097 41.664 58.0351 31.2464L57.604 28.0629C43.2724 38.5024 32.7091 46.6267 14.6938 68.2424L16.5654 74.6018V74.6033Z" fill="#9F1E2D"/>
<path d="M58.9582 31.0693C73.9544 31.7214 88.2767 35.5069 104.353 42.1311L104.463 38.1685C91.3081 32.0145 69.5326 26.1458 58.5444 27.7697L58.9582 31.0693Z" fill="#DEBCA7"/>
<path d="M58.5459 27.7697C63.623 22.7067 69.3554 18.346 75.5893 14.805C84.0256 18.8005 93.9916 26.254 104.467 38.1685C89.1794 32.2465 71.0953 28.0895 58.5459 27.7697Z" fill="#DC0023"/>
<path d="M58.0051 18.9526C57.8844 20.1674 56.4862 21.0201 54.8779 20.8775C53.2697 20.7348 52.0564 19.625 52.1677 18.4228C52.279 17.2221 53.6805 16.3396 55.2903 16.4901C56.9001 16.6405 58.1164 17.755 58.0051 18.9557" fill="#DC0023"/>
<path d="M55.1649 52.4013C50.475 52.4013 47.3823 55.1115 46.6942 60.0099L46.6143 60.5836H50.3183L50.428 59.8015C50.7948 57.1979 52.3466 55.7871 54.6399 55.7871C56.9331 55.7871 57.8438 57.0881 57.477 59.6917L57.3893 60.3172C57.1416 62.09 56.4942 62.6104 51.8372 64.5902C46.7789 66.8317 44.6862 69.1249 44.1141 73.191C43.5576 77.1521 45.4481 79.6538 49.0424 79.6538C51.8623 79.6977 54.4565 78.1161 55.7105 75.5893C55.5851 76.7665 55.5585 77.953 55.6306 79.1349H59.2279C59.1087 76.7461 59.253 74.3509 59.6574 71.995L61.2985 60.3203C62.0305 55.1084 60.1716 52.3982 55.1666 52.3982M55.9911 70.2755C55.4628 74.028 53.5395 76.2163 50.8857 76.2163C48.7476 76.2163 47.8338 74.9153 48.1567 72.6204C48.4796 70.3256 49.7963 68.7644 52.5848 67.4618C54.9878 66.3144 56.1195 65.689 56.7324 65.0103L55.9911 70.2755Z" fill="black"/>
<path d="M92.7597 52.4013C88.0666 52.4013 84.9772 55.1115 84.2891 60.0099L84.2075 60.5836H87.9037L88.0134 59.8015C88.3802 57.1979 89.9321 55.7871 92.2253 55.7871C94.5186 55.7871 95.4293 57.0881 95.0656 59.6917L94.9778 60.3172C94.7285 62.09 94.0765 62.6104 89.4257 64.5902C84.3674 66.8317 82.2716 69.1249 81.7011 73.191C81.1446 77.1521 83.0335 79.6538 86.6293 79.6538C89.4508 79.6992 92.0466 78.1176 93.3022 75.5893C93.1768 76.7665 93.1485 77.953 93.2206 79.1349H96.818C96.6974 76.7461 96.8416 74.3509 97.2476 71.995L98.8887 60.3203C99.6223 55.1084 97.7601 52.3982 92.7566 52.3982M93.5796 70.2755C93.0513 74.028 91.1295 76.2163 88.4679 76.2163C86.3299 76.2163 85.4207 74.9153 85.7436 72.6204C86.0665 70.3256 87.377 68.7644 90.1687 67.4618C92.5717 66.3144 93.7018 65.689 94.3194 65.0103L93.5796 70.2755Z" fill="black"/>
<path d="M111.69 52.4013C106.684 52.4013 103.61 55.3717 102.856 60.7404L101.376 71.2692C100.622 76.6379 102.854 79.66 107.859 79.66C112.864 79.66 115.808 76.4812 116.54 71.2692L116.775 69.6014H112.971L112.686 71.6345C112.275 74.5531 110.955 76.1692 108.35 76.1692C105.745 76.1692 104.875 74.5531 105.285 71.6345L106.867 60.3767C107.278 57.4565 108.593 55.8937 111.2 55.8937C113.806 55.8937 114.679 57.4565 114.269 60.3767L114.057 61.8878H117.861L118.023 60.7419C118.757 55.53 116.748 52.4029 111.692 52.4029" fill="black"/>
<path d="M124.156 43.5403L123.365 49.1692H127.269L128.061 43.5403H124.156Z" fill="black"/>
<path d="M119.153 79.1397H123.058L126.743 52.9233H122.838L119.153 79.1397Z" fill="black"/>
<path d="M138.565 52.4013C133.875 52.4013 130.782 55.1115 130.094 60.0099L130.014 60.5836H133.718L133.828 59.8015C134.195 57.1978 135.746 55.7871 138.04 55.7871C140.333 55.7871 141.244 57.0881 140.877 59.6917L140.789 60.3172C140.541 62.09 139.894 62.6104 135.239 64.5901C130.18 66.8317 128.085 69.1249 127.514 73.191C126.958 77.152 128.848 79.6538 132.442 79.6538C135.264 79.6977 137.858 78.116 139.112 75.5877C138.987 76.7649 138.96 77.9515 139.032 79.1334H142.629C142.51 76.7445 142.654 74.3494 143.059 71.9934L144.7 60.3187C145.434 55.1068 143.573 52.3966 138.568 52.3966M139.391 70.2739C138.863 74.0265 136.941 76.2147 134.286 76.2147C132.148 76.2147 131.234 74.9137 131.557 72.6189C131.879 70.324 133.196 68.7628 135.985 67.4602C138.388 66.3128 139.518 65.6874 140.132 65.0087L139.391 70.2739Z" fill="black"/>
<path d="M83.7261 52.975H79.3325L69.5106 64.5996L69.5277 64.4726L72.4762 43.4948H68.5716L63.5649 79.1381H67.4696L68.5826 71.2175L69.2785 66.2642L69.3679 65.6278L75.8652 79.2008H80.0425L73.3572 65.2469L83.7261 52.975Z" fill="black"/>
</g>
</svg>
